PathFileType	4	(X/Y/Z)	C:\Users\Basilio\Documents\Thesis Gigler\squatting_fais\c3dfiles\041\SLS_pre_front2\markers_experimental.trc
DataRate	CameraRate	NumFrames	NumMarkers	Units	OrigDataRate	OrigDataStartFrame	OrigNumFrames
200.000000	200.000000	4	62	mm	200.000000	534	1425
Frame#	Time	FHD			LBHD			RBHD			C7			T10			CLAV			LSHO			LUUPA			LMUPA			LDUPA			LLEP			LMEP			LRAD			LUL			LRFIN			RSHO			RUPA1			RMUPA			RDUPA			RLEP			RMEP			RRAD			RUL			RUFIN			LASI			RASI			USACR			LSACR			RSACR			LTHI1			LTHI2			LTHI3			LTHI4			LLFC			LMFC			LTIB1			LTIB2			LTIB3			LTIB4			LLMAL			LMMAL			LHEE			LMT1			LMT2			LMT5			RTHI			RTHI2			RTHI3			RTHI4			RLFC			RMFC			RTIB1			RTIB2			RTIB3			RTIB4			RLMAL			RMMAL			RHEE			RMT1			RMT2			RMT5			*61			
		X1	Y1	Z1	X2	Y2	Z2	X3	Y3	Z3	X4	Y4	Z4	X5	Y5	Z5	X6	Y6	Z6	X7	Y7	Z7	X8	Y8	Z8	X9	Y9	Z9	X10	Y10	Z10	X11	Y11	Z11	X12	Y12	Z12	X13	Y13	Z13	X14	Y14	Z14	X15	Y15	Z15	X16	Y16	Z16	X17	Y17	Z17	X18	Y18	Z18	X19	Y19	Z19	X20	Y20	Z20	X21	Y21	Z21	X22	Y22	Z22	X23	Y23	Z23	X24	Y24	Z24	X25	Y25	Z25	X26	Y26	Z26	X27	Y27	Z27	X28	Y28	Z28	X29	Y29	Z29	X30	Y30	Z30	X31	Y31	Z31	X32	Y32	Z32	X33	Y33	Z33	X34	Y34	Z34	X35	Y35	Z35	X36	Y36	Z36	X37	Y37	Z37	X38	Y38	Z38	X39	Y39	Z39	X40	Y40	Z40	X41	Y41	Z41	X42	Y42	Z42	X43	Y43	Z43	X44	Y44	Z44	X45	Y45	Z45	X46	Y46	Z46	X47	Y47	Z47	X48	Y48	Z48	X49	Y49	Z49	X50	Y50	Z50	X51	Y51	Z51	X52	Y52	Z52	X53	Y53	Z53	X54	Y54	Z54	X55	Y55	Z55	X56	Y56	Z56	X57	Y57	Z57	X58	Y58	Z58	X59	Y59	Z59	X60	Y60	Z60	X61	Y61	Z61	X62	Y62	Z62	

535	2.67	-270.1100158691407	1737.543090820313	-1089.343383789063	-437.4858398437501	1646.349365234375	-1160.301391601563	-417.1304626464845	1656.915649414063	-1009.247436523438	-466.5181274414064	1507.108642578125	-1090.300903320313	-511.3417968750001	1201.02734375	-1071.196533203125	-304.8040161132813	1456.196044921875	-1091.601928710938	-389.4361877441407	1511.193359375	-1232.901489257813	-303.8737487792969	1502.382446289063	-1374.675537109375	-259.3681945800782	1521.471313476563	-1365.634765625	-253.4085388183594	1505.462158203125	-1424.121459960938	-213.4843139648438	1505.732299804688	-1449.204956054688	-161.893539428711	1442.8544921875	-1419.700439453125	50.06129837036134	1557.35791015625	-1529.00390625	11.77079772949219	1555.037841796875	-1591.4462890625	104.8018035888672	1603.950805664063	-1562.661376953125	-388.0271301269532	1537.794921875	-969.0796508789065	-242.8438873291016	1537.819458007813	-856.459167480469	-226.6614990234376	1564.075317382813	-896.7032470703127	-176.6726837158203	1561.88818359375	-864.203308105469	-131.4221649169922	1567.047607421875	-868.9997558593752	-109.4785308837891	1486.560913085938	-891.8606567382815	131.2554321289063	1582.902709960938	-940.4050903320315	128.9707641601563	1597.585693359375	-866.1839599609377	213.4035949707032	1604.868774414063	-943.473083496094	-343.0773315429688	1008.665100097656	-1161.7255859375	-360.5433654785157	1019.431640625	-939.1311645507815	-531.1264038085939	1078.160034179688	-1064.43994140625	-542.8029785156251	1049.889892578125	-1091.506591796875	-550.1003417968751	1051.8857421875	-1036.779296875	-389.2109985351564	787.3681640625002	-1221.432373046875	-328.4938659667969	729.3520507812501	-1210.92578125	-286.5187377929688	750.2005615234376	-1201.03076171875	-334.6828002929688	669.6586303710939	-1195.303466796875	-261.4500732421876	515.1398925781251	-1161.535766601563	-257.3749694824219	510.9094848632814	-1044.241943359375	-263.0041503906251	331.0135192871094	-1083.561279296875	-316.3766479492188	291.8380737304688	-1142.985961914063	-280.9184570312501	282.3503723144532	-1115.597534179688	-300.9922790527344	212.8789825439454	-1074.14599609375	-378.5661621093751	131.0689239501953	-1107.247314453125	-342.3592834472657	138.5709838867188	-1024.584350585938	-448.730926513672	117.5266265869141	-1063.042114257813	-242.8612213134766	62.06976699829103	-1038.335693359375	-236.0716094970704	57.7588348388672	-1083.566040039063	-285.1309204101563	44.80120468139649	-1136.410034179688	-327.3594360351563	779.6704101562502	-859.8840332031252	-261.8886108398438	771.8795166015627	-857.5773925781252	-240.6627960205079	796.8480224609377	-863.729675292969	-222.5095977783204	697.3976440429689	-871.6016845703127	-130.0109405517578	610.8792114257814	-871.5396728515627	-96.86869049072268	613.9100952148439	-986.9366455078127	9.979456901550295	512.1202392578126	-870.905456542969	0.618219017982483	399.2711181640626	-860.3068847656252	36.61304092407227	429.3038940429689	-858.0603637695315	87.48279571533205	410.4444274902345	-881.1085205078127	131.7486419677735	283.9993896484376	-867.1350097656252	143.1754913330078	323.6280212402344	-944.7037353515627	127.3936309814453	215.2942504882813	-921.218688964844	271.3936767578126	377.5301513671876	-915.0361938476565	266.5933227539063	380.7413330078126	-863.141052246094	253.7943420410157	330.4603271484376	-820.1811523437502	-4216.792480468751	853.077575683594	-3944.714843750001	
536	2.675	-269.7773742675782	1736.968994140625	-1089.132690429688	-437.1186523437501	1645.810180664063	-1159.990966796875	-416.8489990234376	1656.655639648438	-1008.671813964844	-466.3829040527345	1506.640869140625	-1090.026611328125	-511.7318420410157	1200.734375	-1071.220947265625	-304.9371337890626	1455.535766601563	-1091.38525390625	-389.5830078125001	1510.8193359375	-1232.735473632813	-303.5543212890626	1502.148559570313	-1374.38671875	-259.0753784179688	1521.228515625	-1365.329711914063	-253.1863250732422	1505.331298828125	-1423.858520507813	-213.2831420898438	1505.589233398438	-1448.9765625	-161.8429260253907	1442.687622070313	-1419.56591796875	50.25706863403322	1557.002685546875	-1529.0615234375	11.74224662780762	1554.892700195313	-1591.410522460938	104.9689636230469	1603.614624023438	-1562.549560546875	-388.0115661621095	1537.257568359375	-968.909851074219	-242.5574340820313	1537.122924804688	-856.3968505859377	-226.3966979980469	1563.585571289063	-896.726013183594	-176.3802032470703	1561.303344726563	-864.313659667969	-130.8973236083985	1566.371826171875	-869.491394042969	-109.4607086181641	1485.983520507813	-892.1880493164065	131.3370819091797	1582.525390625	-940.8618164062502	129.2017669677735	1597.028442382813	-866.6765747070315	213.4888153076172	1604.193725585938	-943.8602294921877	-343.5937500000001	1008.118225097656	-1161.549194335938	-361.3458557128907	1018.98583984375	-938.9876098632815	-531.7253417968751	1077.785888671875	-1064.409301757813	-543.3265380859376	1049.433959960938	-1091.53857421875	-551.0449218750001	1051.315185546875	-1036.9580078125	-389.3318176269532	786.991882324219	-1221.28173828125	-328.5776367187501	729.0800781250001	-1210.583618164063	-286.6847839355469	749.9368286132814	-1200.562133789063	-334.6859130859376	669.2876586914064	-1194.98095703125	-260.6504821777344	514.8078002929689	-1160.785766601563	-257.6685791015626	510.7478942871095	-1043.714233398438	-262.8351745605469	330.7869873046876	-1082.950927734375	-316.0358886718751	291.7254943847657	-1142.459716796875	-280.7747497558594	282.1110839843751	-1115.134033203125	-301.0147399902344	212.6165008544922	-1073.638061523438	-378.5267028808594	131.0624084472657	-1107.035522460938	-342.3616638183594	138.4299621582032	-1024.35107421875	-448.7830200195314	117.5098114013672	-1062.946899414063	-242.8826141357422	61.99438858032228	-1038.252197265625	-236.0325317382813	57.84841537475587	-1083.421630859375	-285.0660400390626	44.98900604248048	-1136.307739257813	-327.8965454101563	779.1965332031252	-859.9473876953127	-262.6420593261719	771.6352539062502	-857.507507324219	-241.3787231445313	796.6109008789065	-863.5727539062502	-223.2075347900391	697.1021728515626	-871.702575683594	-130.5012817382813	610.5754394531251	-871.6541748046877	-97.27822875976565	613.8808593750001	-986.9751586914065	9.695540428161623	512.1054687500001	-871.0899047851565	0.4616376161575318	399.2525329589845	-860.469909667969	36.41561508178712	429.4146423339845	-858.2434692382815	87.3262176513672	410.5315246582032	-881.368835449219	131.6695709228516	284.1220397949219	-867.3380126953127	142.9427642822266	323.7554931640626	-944.875427246094	127.3230209350586	215.4510803222657	-921.453063964844	271.0582885742188	377.8465576171876	-915.4429931640627	266.7052001953126	380.5823059082032	-863.372741699219	253.8310852050782	330.6508483886719	-820.5615234375002	-4217.118164062501	853.1860961914065	-3944.774658203126	
537	2.68	-269.4715881347657	1736.423095703125	-1088.894409179688	-436.883270263672	1645.337768554688	-1159.72265625	-416.4946594238282	1656.0830078125	-1008.366027832031	-466.2928161621095	1506.208251953125	-1089.810668945313	-512.1303710937501	1200.43603515625	-1071.26513671875	-304.7962036132813	1455.048583984375	-1091.198486328125	-389.4215393066407	1510.4111328125	-1232.54345703125	-303.2312927246094	1501.963134765625	-1374.159301757813	-258.9177551269532	1521.078369140625	-1365.004028320313	-252.9806671142579	1505.217041015625	-1423.559326171875	-213.0669860839844	1505.55810546875	-1448.733154296875	-161.7611694335938	1442.556762695313	-1419.5146484375	50.29457092285158	1556.860961914063	-1529.016357421875	11.71871566772461	1554.7978515625	-1591.374267578125	104.9269027709961	1603.433227539063	-1562.525268554688	-387.8904113769532	1536.718627929688	-968.7659912109377	-242.3729248046876	1536.444702148438	-856.3461914062502	-226.3507232666016	1562.852905273438	-896.6643066406252	-176.1376037597657	1560.733276367188	-864.4600219726565	-131.0985260009766	1565.673095703125	-869.1339111328127	-109.1942443847657	1485.30908203125	-892.702087402344	131.4567260742188	1582.010620117188	-941.4588623046877	129.202392578125	1596.254272460938	-867.1943359375002	213.5872802734376	1603.548217773438	-944.3443603515627	-343.9041137695313	1007.647338867188	-1161.453491210938	-361.9619445800782	1018.443603515625	-939.0393676757815	-532.2521972656251	1077.376342773438	-1064.364868164063	-543.7714843750001	1049.065307617188	-1091.654541015625	-551.4728393554689	1050.97314453125	-1036.9912109375	-389.4593505859376	786.6621093750002	-1221.14892578125	-328.6043395996094	728.8121948242189	-1210.211547851563	-286.5280151367188	749.3610839843751	-1199.801025390625	-334.6349182128907	669.0514526367189	-1194.6591796875	-260.2263183593751	514.6389770507814	-1160.225708007813	-257.8742675781251	510.7391357421876	-1043.21533203125	-262.8315429687501	330.6383666992188	-1082.363891601563	-315.7524719238282	291.5452575683594	-1142.192993164063	-280.6207885742188	282.0636901855469	-1114.593505859375	-301.1040039062501	212.604232788086	-1073.2216796875	-378.4802246093751	131.030014038086	-1106.875366210938	-342.4405822753907	138.3646392822266	-1024.108032226563	-448.7738037109376	117.4626235961914	-1062.917114257813	-242.8228912353516	61.97275924682619	-1038.176513671875	-236.1929626464844	57.21665191650392	-1083.698852539063	-285.0321350097657	45.13118362426759	-1136.196166992188	-328.4732666015626	778.5688476562502	-860.0541992187502	-263.4175109863282	771.243103027344	-857.3855590820315	-241.8084716796876	796.3624267578127	-863.634460449219	-223.7977905273438	696.7791748046876	-871.7128906250002	-130.822021484375	610.4834594726564	-871.8248291015627	-97.57034301757815	613.7396850585939	-987.0726318359377	9.246325492858888	512.1885375976564	-870.9323730468752	0.2570345997810364	399.1784057617189	-860.662292480469	36.13110351562501	429.404754638672	-858.441345214844	87.13082885742189	410.6497192382814	-881.5899658203127	131.6626434326172	284.2554016113282	-867.4273681640627	142.6096649169922	323.8349609375001	-945.1785888671877	127.2889556884766	215.4743957519532	-921.610534667969	270.9064331054688	378.0207214355469	-915.8474731445315	265.9537658691407	381.6477050781251	-863.8237304687502	253.7048950195313	330.8438720703126	-820.923522949219	-4216.937011718751	853.1115722656252	-3944.629394531251	
538	2.685	-268.9585876464844	1735.696655273438	-1088.52197265625	-436.7022399902345	1644.936889648438	-1159.438720703125	-416.1286926269532	1655.580932617188	-1008.121215820313	-466.3613891601564	1505.899780273438	-1089.523559570313	-512.4176025390626	1200.072875976563	-1071.33642578125	-304.8365478515626	1454.423095703125	-1090.931396484375	-389.2093200683595	1510.02099609375	-1232.340454101563	-302.9612121582032	1501.813232421875	-1373.948486328125	-258.7185668945313	1520.857666015625	-1364.668212890625	-252.3717041015626	1504.838623046875	-1423.103271484375	-212.8760833740235	1505.3974609375	-1448.49462890625	-161.7088317871094	1442.412719726563	-1419.44189453125	50.44919204711915	1556.665405273438	-1529.108520507813	11.71451473236084	1554.683471679688	-1591.35986328125	104.9952545166016	1603.087158203125	-1562.506103515625	-387.7644653320314	1536.145629882813	-968.5887451171877	-242.2810516357422	1535.9384765625	-856.345153808594	-226.0491180419922	1562.538208007813	-896.8857421875002	-175.9549865722657	1560.326904296875	-864.4633789062502	-130.8002471923828	1565.060180664063	-869.4524536132815	-108.9377899169922	1484.743041992188	-893.1973876953127	131.888900756836	1581.153076171875	-942.0120849609377	129.3909759521485	1595.611572265625	-867.7005004882815	213.8065185546876	1602.930053710938	-944.943298339844	-344.3929443359376	1007.175964355469	-1161.296264648438	-362.6800537109376	1018.065368652344	-939.0347900390627	-532.6840209960939	1077.028930664063	-1064.429077148438	-544.3439331054689	1048.838500976563	-1091.818481445313	-552.0340576171876	1050.614868164063	-1037.056518554688	-389.5283508300782	786.2180175781252	-1220.891723632813	-328.5629577636719	728.5078125000001	-1209.870361328125	-287.0429687500001	749.3794555664064	-1199.3662109375	-334.5950622558594	668.7933959960939	-1194.248779296875	-259.9036254882813	514.5008544921876	-1159.770751953125	-258.0492858886719	510.697967529297	-1042.720458984375	-262.7609252929688	330.5203247070313	-1081.850830078125	-315.5534362792969	291.4364929199219	-1141.874877929688	-280.3804016113282	281.7722167968751	-1114.057983398438	-301.1497802734376	212.3530578613282	-1072.800537109375	-378.4295349121094	131.0699157714844	-1106.715942382813	-342.5647583007813	138.2148132324219	-1023.876708984375	-448.7223510742189	117.3751602172852	-1062.822875976563	-242.8341064453126	61.94426727294923	-1038.075439453125	-236.1965026855469	57.28101348876955	-1083.553955078125	-284.9333190917969	45.22921752929688	-1136.098022460938	-329.2139587402344	778.2580566406252	-859.9300537109377	-263.8281555175782	771.0230712890627	-857.4676513671877	-242.3543395996094	796.1155395507815	-863.696228027344	-224.1617431640626	696.4583129882814	-871.8206787109377	-131.2189025878907	610.4481201171876	-871.8557128906252	-97.91194152832034	613.6813354492189	-987.1831054687502	9.070768356323244	512.1746215820314	-871.0933837890627	0.2048745006322861	399.1746215820314	-860.625671386719	35.83579635620118	429.4384765625001	-858.6163330078127	86.93833160400392	410.7203063964845	-881.8679199218752	131.5807800292969	284.3675231933594	-867.656677246094	142.3101501464844	323.8296813964844	-945.5452270507815	127.1849136352539	215.5303649902344	-921.774841308594	270.6130676269532	378.2989196777344	-916.1880493164065	266.1014099121094	381.3458557128907	-864.339782714844	253.6512451171876	330.9859008789063	-821.2495117187502	-4217.237792968751	853.1531982421877	-3944.629150390626	
